# AST/ASF file generated using VICON BodyLanguage
# -----------------------------------------------
:version 1.10
:name VICON
:units
  mass 1.0
  length 0.45
  angle deg
:documentation
   .ast/.asf automatically generated from VICON data using
   VICON BodyBuilder and BodyLanguage model FoxedUp or BRILLIANT.MOD
:root
   order TX TY TZ RX RY RZ
   axis XYZ
   position 0 0 0  
   orientation 0 0 0 
:bonedata
  begin
     id 1 
     name lhipjoint
     direction 0.64773 -0.699417 0.302095 
     length 2.48597 
     axis 0 0 0  XYZ
  end
  begin
     id 2 
     name lfemur
     direction 0.34202 -0.939693 0  
     length 6.71947  
     axis 0 0 20  XYZ
    dof rx ry rz
    limits (-160.0 20.0)
           (-70.0 70.0)
           (-60.0 70.0)
  end
  begin
     id 3 
     name ltibia
     direction 0.34202 -0.939693 0   
     length 8.08777   
     axis 0 0 20   XYZ
    dof rx
    limits (-10.0 170.0)
  end
  begin
     id 4 
     name lfoot
     direction 0.0808503 -0.222134 0.971658   
     length 2.08264   
     axis -90 7.62852e-016 20   XYZ
    dof rx rz
    limits (-45.0 90.0)
           (-70.0 20.0)
  end
  begin
     id 5 
     name ltoes
     direction 1.53502e-011 -4.22007e-011 1   
     length 1.04662   
     axis -90 7.62852e-016 20   XYZ
    dof rx
    limits (-90.0 20.0)
  end
  begin
     id 6 
     name rhipjoint
     direction -0.610924 -0.726792 0.313919   
     length 2.39233  
     axis 0 0 0  XYZ 
  end
  begin
     id 7 
     name rfemur
     direction -0.34202 -0.939693 0   
     length 6.96955   
     axis 0 0 -20   XYZ
    dof rx ry rz
    limits (-160.0 20.0)
           (-70.0 70.0)
           (-70.0 60.0)
  end
  begin
     id 8 
     name rtibia
     direction -0.34202 -0.939693 0   
     length 8.19584   
     axis 0 0 -20   XYZ
    dof rx
    limits (-10.0 170.0)
 end
 begin
     id 9 
     name rfoot
     direction -0.077777 -0.213691 0.9738   
     length 2.07539  
     axis -90 -7.62852e-016 -20   XYZ
    dof rx rz
    limits (-45.0 90.0)
           (-20.0 70.0)
  end
  begin
     id 10 
     name rtoes
     direction -1.53558e-011 -4.22006e-011 1   
     length 1.04381   
     axis -90 -7.62852e-016 -20   XYZ
    dof rx
    limits (-90.0 20.0)
  end
  begin
     id 11 
     name lowerback
     direction -0.00971646 0.996074 0.0879841   
     length 1.67643   
     axis 0 0 0   XYZ
    dof rx ry rz
    limits (-20.0 45.0)
           (-30.0 30.0)
           (-30.0 30.0)
  end
  begin
     id 12 
     name upperback
     direction 0.0127391 0.991676 0.128127   
     length 1.63741   
     axis 0 0 0   XYZ
    dof rx ry rz
    limits (-20.0 45.0)
           (-30.0 30.0)
           (-30.0 30.0)
  end
  begin
     id 13 
     name thorax
     direction 0.0167583 0.996049 0.0872067   
     length 1.65931   
     axis 0 0 0   XYZ
    dof rx ry rz
    limits (-20.0 45.0)
           (-30.0 30.0)
           (-30.0 30.0)
  end
  begin
     id 14 
     name lowerneck
     direction -0.0317829 0.998312 0.0486079   
     length 1.79021   
     axis 0 0 0   XYZ
    dof rx ry rz
    limits (-20.0 45.0)
           (-30.0 30.0)
           (-30.0 30.0)
  end
  begin
     id 15 
     name upperneck
     direction 0.0896851 0.972452 -0.215159   
     length 1.78797   
     axis 0 0 0   XYZ
    dof rx ry rz
    limits (-20.0 45.0)
           (-30.0 30.0)
           (-30.0 30.0)
  end
  begin
     id 16
     name head
     direction 0.0310949 0.996503 -0.0775582  
     length 1.81549  
     axis 0 0 0   XYZ
    dof rx ry rz
    limits (-20.0 45.0)
           (-30.0 30.0)
           (-30.0 30.0)
  end
  begin
     id 17 
     name lclavicle
     direction 0.853638 0.502051 -0.138733  
     length 3.31627  
     axis 0 0 0   XYZ
    dof ry rz
    limits (-20.0 10.0)
           (0.0 20.0)
  end
  begin
     id 18 
     name lhumerus
     direction 1 -4.48962e-011 -1.41788e-018   
     length 5.54893   
     axis 180 -30 -90   XYZ
    dof rx ry rz
    limits (-60.0 90.0)
           (-90.0 90.0)
           (-90.0 90.0)
  end
  begin
     id 19
     name lradius
     direction 1 -4.48962e-011 -4.95754e-027   
     length 3.02898   
     axis 180 -30 -90   XYZ
    dof rx
    limits (-10.0 170.0)
  end
  begin
     id 20
     name lwrist
     direction 1 -4.48952e-011 -1.03764e-026   
     length 1.51449   
     axis 9.09556e-015 90 90   XYZ
    dof ry
    limits (-180.0 0.0)
 end
  begin
     id 21 
     name lhand
     direction 1 -4.4902e-011 -2.07528e-026   
     length 0.640951   
     axis 1.3242e-014 90 90   XYZ
    dof rx rz
    limits (-90.0 90.0)
           (-45.0 45.0)
  end
  begin
     id 22 
     name lfingers
     direction 1 -4.49014e-011 -4.15056e-026   
     length 0.516751   
     axis 2.64841e-014 90 90   XYZ
    dof rx
    limits (0.0 90.0)
  end
  begin
     id 23
     name lthumb
     direction 0.707107 -6.35008e-011 0.707107   
     length 0.741954   
     axis -90 45 2.85299e-015   XYZ
    dof rx rz
    limits (-45.0 45.0)
           (-45.0 45.0)
  end
  begin
     id 24 
     name rclavicle
     direction -0.888531 0.455324 -0.0565039   
     length 3.20126  
     axis 0 0 0   XYZ 
    dof ry rz
    limits (-10.0 20.0)
           (-20.0 0.0)
  end
  begin
     id 25 
     name rhumerus
     direction -1 -4.48946e-011 -8.98298e-028  
     length 5.3519   
     axis 180 30 90   XYZ
    dof rx ry rz
    limits (-90.0 60.0)
           (-90.0 90.0)
           (-90.0 90.0)
  end
  begin
     id 26 
     name rradius
     direction -1 -4.4899e-011 -3.18779e-027   
     length 3.02531   
     axis 180 30 90   XYZ
    dof rx
    limits (-10.0 170.0)
  end
  begin
     id 27 
     name rwrist
     direction -1 -4.4897e-011 -1.03764e-026   
     length 1.51266   
     axis 9.09556e-015 -90 -90   XYZ
    dof ry
    limits (-180.0 0.0)
  end
  begin
     id 28
     name rhand
     direction -1 -4.48941e-011 -2.07528e-026   
     length 0.78389   
     axis 1.3242e-014 -90 -90   XYZ
    dof rx rz
    limits (-90.0 90.0)
           (-45.0 45.0)
  end
  begin
     id 29
     name rfingers
     direction -1 -4.49012e-011 -4.15056e-026   
     length 0.631992   
     axis 2.64841e-014 -90 -90   XYZ
    dof rx
    limits (0.0 90.0)
  end
  begin
     id 30
     name rthumb
     direction -0.707107 -6.3496e-011 0.707107   
     length 0.907418   
     axis -90 -45 -2.85299e-015   XYZ
    dof rx rz
    limits (-45.0 45.0)
           (-45.0 45.0)
  end
:hierarchy
  begin
    root lhipjoint rhipjoint lowerback
    lhipjoint lfemur
    lfemur ltibia
    ltibia lfoot
    lfoot ltoes
    rhipjoint rfemur
    rfemur rtibia
    rtibia rfoot
    rfoot rtoes
    lowerback upperback
    upperback thorax
    thorax lowerneck lclavicle rclavicle
    lowerneck upperneck
    upperneck head
    lclavicle lhumerus
    lhumerus lradius
    lradius lwrist
    lwrist lhand lthumb
    lhand lfingers
    rclavicle rhumerus
    rhumerus rradius
    rradius rwrist
    rwrist rhand rthumb
    rhand rfingers
  end

#!OML:ASF E:\Style3\Style3.ASF
:FULLY-SPECIFIED
:DEGREES
811
root -0.675976 17.904 0.503541 -27.7193 87.2287 -42.9674
lowerback -8.25822 -1.16208 -1.92912
upperback -11.4831 -0.817378 1.24109
thorax -7.41593 0.0674795 2.33753
lowerneck -11.4159 -3.2723 -4.8759
upperneck 24.6322 -5.35665 8.88087
head 10.0795 -1.74139 3.35271
rclavicle -2.98177e-016 4.27387e-015
rhumerus 55.1549 60.261 -4.60187
rradius 68.6776
rwrist -28.4049
rhand 12.4073 1.37229
rfingers 7.12502
rthumb 37.4058 -24.5862
lclavicle -2.98177e-016 4.27387e-015
lhumerus 47.266 -33.5576 16.3779
lradius 68.1459
lwrist 20.7997
lhand -11.6484 39.9915
lfingers 7.12502
lthumb 14.3958 69.4722
rfemur -16.458 13.2321 16.957
rtibia 12.0401
rfoot -10.1936 -18.0544
rtoes -17.5335
lfemur 0 0 0
ltibia 0
lfoot 0 0
ltoes 0
812
root -0.672316 17.9015 0.49894 -29.788 87.4382 -44.9803
lowerback -8.05267 -1.23998 -1.87905
upperback -11.5818 -0.922861 1.20899
thorax -7.6371 0.0156585 2.27693
lowerneck -11.5569 -3.28278 -4.86992
upperneck 24.9746 -5.3921 8.91546
head 10.235 -1.73772 3.36852
rclavicle -9.19379e-016 1.42131e-014
rhumerus 55.1925 58.6671 -4.46537
rradius 69.0587
rwrist -28.9776
rhand 12.389 1.16825
rfingers 7.12502
rthumb 37.3886 -24.7948
lclavicle -9.19379e-016 1.42131e-014
lhumerus 46.966 -34.9664 16.3388
lradius 68.2235
lwrist 21.1762
lhand -11.536 39.8845
lfingers 7.12502
lthumb 14.5041 69.3575
rfemur -16.4135 13.203 16.9056
rtibia 12.184
rfoot -10.3575 -18.2416
rtoes -17.2887
lfemur 0 0 0
ltibia 0
lfoot 0 0
ltoes 0
813
root -0.669541 17.8976 0.49365 -33.3046 87.5972 -48.4402
lowerback -7.66162 -1.31614 -1.86132
upperback -11.768 -1.0177 1.27667
thorax -8.06238 -0.0170635 2.34444
lowerneck -11.6028 -3.28036 -4.79713
upperneck 25.2581 -5.36685 8.72814
head 10.3375 -1.72963 3.29905
rclavicle 1.31819e-014 -1.59028e-015
rhumerus 55.6908 57.156 -3.65536
rradius 69.3983
rwrist -29.7668
rhand 12.4333 0.87646
rfingers 7.12502
rthumb 37.4304 -25.0755
lclavicle 1.31819e-014 -1.59028e-015
lhumerus 46.5691 -36.5581 16.4947
lradius 68.2344
lwrist 21.4634
lhand -11.4222 39.6013
lfingers 7.12502
lthumb 14.6137 69.0664
rfemur -16.3413 13.1657 16.9206
rtibia 12.2577
rfoot -10.4397 -18.4085
rtoes -17.1152
lfemur 0 0 0
ltibia 0
lfoot 0 0
ltoes 0
814
root -0.665862 17.8963 0.488545 -36.5228 87.734 -51.6183
lowerback -8.28409 -1.40626 -1.64615
upperback -11.4214 -1.15725 1.22458
thorax -7.31737 -0.129583 2.1544
lowerneck -11.6189 -3.20335 -4.63801
upperneck 24.9095 -5.26476 8.65938
head 10.1991 -1.68898 3.24925
rclavicle -1.11816e-014 4.96962e-016
rhumerus 56.2161 54.7993 -3.18711
rradius 69.5684
rwrist -30.1972
rhand 12.7548 1.03487
rfingers 7.12502
rthumb 37.7342 -24.8362
lclavicle -1.11816e-014 4.96962e-016
lhumerus 46.4062 -37.5467 16.1883
lradius 68.3232
lwrist 21.6193
lhand -11.5276 39.4529
lfingers 7.12502
lthumb 14.5122 68.9254
rfemur -16.2463 13.0107 16.9371
rtibia 12.2439
rfoot -10.4582 -18.4558
rtoes -16.9267
lfemur 0 0 0
ltibia 0
lfoot 0 0
ltoes 0
815
root -0.662211 17.8998 0.483545 -40.57 87.824 -55.6231
lowerback -8.27117 -1.51774 -1.55656
upperback -11.427 -1.30587 1.287
thorax -7.32381 -0.207737 2.16751
lowerneck -11.5619 -3.13059 -4.56945
upperneck 24.8628 -5.14756 8.54677
head 10.1564 -1.64467 3.21053
rclavicle 1.66234e-014 -1.14301e-014
rhumerus 56.1488 52.8151 -3.40208
rradius 69.6337
rwrist -30.222
rhand 12.8394 1.81611
rfingers 7.12502
rthumb 37.8142 -24.0334
lclavicle 1.66234e-014 -1.14301e-014
lhumerus 45.9559 -39.0365 16.138
lradius 68.453
lwrist 21.5412
lhand -11.5982 39.2896
lfingers 7.12502
lthumb 14.4442 68.7669
rfemur -16.1123 12.7635 17.0276
rtibia 12.172
rfoot -10.3432 -18.3859
rtoes -17.5589
lfemur 0 0 0
ltibia 0
lfoot 0 0
ltoes 0
816
root -0.658987 17.9014 0.475468 -46.0698 87.925 -61.1966
lowerback -7.5805 -1.59983 -1.38763
upperback -11.8881 -1.39595 1.32543
thorax -8.23076 -0.2354 2.13148
lowerneck -11.4801 -3.12862 -4.56637
upperneck 25.219 -5.12416 8.4185
head 10.264 -1.63625 3.17727
rclavicle 5.82688e-015 -6.85807e-015
rhumerus 55.7602 51.4025 -3.81171
rradius 69.6055
rwrist -30.3813
rhand 13.0161 2.17319
rfingers 7.12502
rthumb 37.981 -23.6312
lclavicle 5.82688e-015 -6.85807e-015
lhumerus 45.3581 -41.1305 16.3143
lradius 68.5411
lwrist 21.3514
lhand -11.554 39.2215
lfingers 7.12502
lthumb 14.4867 68.6958
rfemur -16.0796 12.5707 17.0713
rtibia 12.0559
rfoot -10.2836 -18.4094
rtoes -17.7241
lfemur 0 0 0
ltibia 0
lfoot 0 0
ltoes 0
817
root -0.658641 17.9028 0.465889 -53.7002 88.0675 -68.995
lowerback -8.06421 -1.69879 -1.06182
upperback -11.7407 -1.53929 1.25608
thorax -7.79215 -0.346062 1.86232
lowerneck -11.5748 -3.08473 -4.41557
upperneck 25.016 -5.07049 8.34121
head 10.1985 -1.6128 3.12351
rclavicle -4.72114e-016 1.09332e-014
rhumerus 55.8015 49.2013 -3.99229
rradius 69.5362
rwrist -31.0334
rhand 12.3873 1.67348
rfingers 7.12502
rthumb 37.387 -24.2899
lclavicle -4.72114e-016 1.09332e-014
lhumerus 45.1741 -42.3815 16.1676
lradius 68.4428
lwrist 21.3298
lhand -11.5559 39.2847
lfingers 7.12502
lthumb 14.485 68.7591
rfemur -16.1419 12.4787 17.0252
rtibia 11.9004
rfoot -10.3272 -18.5712
rtoes -17.1061
lfemur 0 0 0
ltibia 0
lfoot 0 0
ltoes 0
818
root -0.656205 17.9043 0.459654 -60.8975 88.1336 -76.263
lowerback -8.32187 -1.78269 -0.772891
upperback -11.6356 -1.66589 1.1976
thorax -7.53317 -0.441129 1.62992
lowerneck -11.7798 -3.0624 -4.2751
upperneck 25.0013 -5.0473 8.24672
head 10.2253 -1.59802 3.06592
rclavicle -9.93923e-017 -1.77912e-014
rhumerus 55.8012 47.0882 -4.29047
rradius 69.5236
rwrist -31.5674
rhand 12.046 0.872687
rfingers 7.12502
rthumb 37.0642 -25.1751
lclavicle -9.93923e-017 -1.77912e-014
lhumerus 44.9216 -43.7849 15.9626
lradius 68.5162
lwrist 21.6009
lhand -11.7473 39.6066
lfingers 7.12502
lthumb 14.3005 69.0941
rfemur -16.1125 12.4332 17.038
rtibia 11.7881
rfoot -10.2837 -18.7672
rtoes -17.0329
lfemur 0 0 0
ltibia 0
lfoot 0 0
ltoes 0
819
root -0.650722 17.9056 0.456858 -65.1981 88.1233 -80.5642
lowerback -8.54098 -1.8441 -0.650268
upperback -11.5292 -1.75555 1.21832
thorax -7.29095 -0.499975 1.5746
lowerneck -11.8381 -3.01928 -4.1565
upperneck 24.8906 -4.98122 8.1313
head 10.1853 -1.57357 3.00869
rclavicle 3.30107e-014 7.95139e-016
rhumerus 55.7672 44.9913 -4.5634
rradius 69.4734
rwrist -31.7277
rhand 12.1216 0.64177
rfingers 7.12502
rthumb 37.1358 -25.3875
lclavicle 3.30107e-014 7.95139e-016
lhumerus 44.4844 -45.248 16.0657
lradius 68.5756
lwrist 21.932
lhand -11.7061 39.551
lfingers 7.12502
lthumb 14.3403 69.0357
rfemur -16.0385 12.4554 17.0936
rtibia 11.7432
rfoot -10.2155 -18.9477
rtoes -17.513
lfemur 0 0 0
ltibia 0
lfoot 0 0
ltoes 0
820
root -0.643939 17.9057 0.452997 -68.107 88.133 -83.462
lowerback -8.69952 -1.90162 -0.610822
upperback -11.4486 -1.83498 1.27368
thorax -7.10917 -0.544111 1.60364
lowerneck -11.8986 -2.9665 -4.12767
upperneck 24.7991 -4.89338 8.06048
head 10.1547 -1.5418 2.98632
rclavicle -1.11816e-015 -4.67144e-015
rhumerus 55.7364 42.9924 -4.8296
rradius 69.2936
rwrist -31.876
rhand 12.0408 0.995732
rfingers 7.12502
rthumb 37.0593 -25.0534
lclavicle -1.11816e-015 -4.67144e-015
lhumerus 43.8559 -46.7224 16.4329
lradius 68.5445
lwrist 22.2873
lhand -11.7854 39.1367
lfingers 7.12502
lthumb 14.2638 68.6269
rfemur -15.9876 12.3437 17.125
rtibia 11.7462
rfoot -10.1695 -18.9848
rtoes -17.9236
lfemur 0 0 0
ltibia 0
lfoot 0 0
ltoes 0
821
root -0.637852 17.9064 0.451107 -69.9448 88.1883 -85.2505
lowerback -8.62813 -1.94076 -0.642887
upperback -11.4466 -1.88698 1.29614
thorax -7.14356 -0.566972 1.64578
lowerneck -11.9724 -2.9422 -4.09896
upperneck 24.7715 -4.84899 7.99418
head 10.1533 -1.52678 2.96178
rclavicle 3.85953e-014 3.2551e-015
rhumerus 55.5433 41.1605 -5.27417
rradius 69.1264
rwrist -32.0586
rhand 11.8972 1.16201
rfingers 7.12502
rthumb 36.9234 -24.9222
lclavicle 3.85953e-014 3.2551e-015
lhumerus 43.3542 -48.2806 16.6579
lradius 68.5536
lwrist 22.6311
lhand -11.7085 39.3983
lfingers 7.12502
lthumb 14.3379 68.8832
rfemur -15.8926 12.3787 17.0777
rtibia 11.7496
rfoot -10.269 -19.073
rtoes -17.6312
lfemur 0 0 0
ltibia 0
lfoot 0 0
ltoes 0
